Coordinates
version=1
nRows=19
nColumns=33
inDegrees=yes

Units are S.I. units (second, meters, Newtons, ...)
Angles are in degrees.

endheader
time	ground_thorax_rot_x	ground_thorax_rot_y	ground_thorax_rot_z	ground_thorax_tx	ground_thorax_ty	ground_thorax_tz	clav_prot_r	clav_elev_r	scapula_abduction_r	scapula_elevation_r	scapula_upward_rot_r	scapula_winging_r	shoulder_elv_r	plane_of_elev_r	axial_rot_r	elbow_flexion_r	pro_sup_r	wrist_flex_r	wrist_dev_r	clav_prot_l	clav_elev_l	scapula_abduction_l	scapula_elevation_l	scapula_upward_rot_l	scapula_winging_l	shoulder_elv_l	plane_of_elev_l	axial_rot_l	elbow_flexion_l	pro_sup_l	wrist_flex_l	wrist_dev_l
      3.67000000	     19.75514142	     35.40913874	     57.89511704	    -50.51151645	    774.78227395	      9.87090626	     13.13061619	     36.96162444	     32.82288091	     45.00000000	    -43.39518670	  -1882.89980937	  -2099.98604787	     30.60267407	     59.85911612	   1448.19884617	     29.85185117	     16.82247391	     11.45058792	      7.43359442	    -45.00000000	    -35.44554525	     45.00000000	    -45.00000000	   1535.80999495	  -3702.50658240	    146.40766410	    125.00680734	   -712.75161483	     28.25047592	      9.08766752	    -18.66514229
      3.68000000	     19.60788105	     35.48551081	     57.98110884	    -50.68903039	    774.60505542	      9.98154671	     13.48247633	     37.33223306	     32.63218178	     45.00000000	    -43.47013301	  -1882.81057460	  -2099.93697297	     30.67008750	     59.35685609	   1448.07143932	     29.67275844	     16.95714319	     11.69621081	      7.92676047	    -45.00000000	    -35.43597773	     45.00000000	    -45.00000000	   1535.69663775	  -3702.39449970	    146.57399187	    124.80984594	   -712.78301697	     28.05131200	      9.02526286	    -18.75508888
      3.69000000	     19.72354018	     35.46687743	     57.80523998	    -50.94001540	    774.40026273	     10.08585458	     13.16430370	     36.85326315	     32.78983887	     45.00000000	    -43.59153278	  -1882.77491180	  -2099.92018031	     30.61581543	     59.44862576	   1448.09850808	     29.62957358	     16.78860191	     11.51323653	      7.69185739	    -45.00000000	    -35.49115633	     45.00000000	    -45.00000000	   1535.90217495	  -3702.54428487	    146.38415370	    124.77733527	   -712.79862307	     27.84282755	      9.10963305	    -18.57221475
      3.70000000	     19.61861524	     35.56993806	     57.85347601	    -51.26113249	    774.17054146	     10.18053002	     13.39733660	     37.33791558	     32.61582166	     45.00000000	    -43.50682828	  -1882.78391805	  -2099.90744885	     30.62313355	     59.43494714	   1448.01373527	     29.62910976	     16.97238070	     11.69155562	      7.77660748	    -45.00000000	    -35.43497344	     45.00000000	    -45.00000000	   1535.66348349	  -3702.44532814	    146.62529190	    124.77431392	   -712.80101994	     27.57754544	      9.13514365	    -18.68605540
      3.71000000	     19.78458603	     35.50943662	     57.61231005	    -51.65776066	    773.92992183	     10.24745414	     13.20688571	     36.88708042	     32.75166858	     45.00000000	    -43.54573561	  -1882.81139299	  -2099.93990995	     30.64811394	     59.50772305	   1448.07418618	     29.66900050	     16.79556643	     11.46885002	      7.75347781	    -45.00000000	    -35.43013022	     45.00000000	    -45.00000000	   1535.95628919	  -3702.51172935	    146.32613497	    124.75449965	   -712.81699420	     27.35547008	      9.16205943	    -18.54958618
      3.72000000	     19.69244471	     35.65150542	     57.65706070	    -52.12203883	    773.68396662	     10.29420657	     13.37683035	     37.46900569	     32.48476935	     45.00000000	    -43.23463875	  -1882.84408285	  -2099.86472969	     30.58760442	     59.48813855	   1448.06073455	     29.73128561	     17.06301137	     11.67836852	      7.68132112	    -45.00000000	    -35.37164045	     45.00000000	    -45.00000000	   1535.57891102	  -3702.39351730	    146.69866403	    124.87146035	   -712.79483939	     27.13245663	      9.19787107	    -18.71689654
      3.73000000	     19.94145949	     35.54925374	     57.24540328	    -52.64042802	    773.42477655	     10.31962468	     13.20221102	     36.99427100	     32.76346950	     45.00000000	    -43.35365578	  -1882.81609537	  -2099.96625958	     30.55630143	     59.66332864	   1448.03498189	     29.84862973	     16.81789861	     11.44437355	      7.75569266	    -45.00000000	    -35.49375144	     45.00000000	    -45.00000000	   1535.88008018	  -3702.55446125	    146.30225928	    124.91008726	   -712.83138113	     26.95428186	      9.21438010	    -18.59951170
      3.74000000	     19.82435273	     35.68794661	     57.48020353	    -53.19504717	    773.16765118	     10.33188470	     13.35518353	     37.34464973	     32.68420730	     45.00000000	    -43.53505115	  -1882.87190679	  -2099.81877801	     30.68513548	     59.42336417	   1447.95398592	     29.90595772	     17.01064641	     11.57079861	      7.66820755	    -45.00000000	    -35.37789890	     45.00000000	    -45.00000000	   1535.73918911	  -3702.47133031	    146.64665786	    125.05573102	   -712.81544745	     26.79715358	      9.27852335	    -18.75439778
      3.75000000	     20.09840284	     35.62651014	     56.93380076	    -53.77168728	    772.88800623	     10.33418615	     13.18600902	     37.04605676	     32.57053934	     45.00000000	    -42.84161102	  -1882.81379766	  -2099.93068920	     30.48673858	     59.49934104	   1447.96826752	     30.01706427	     16.85536046	     11.47087214	      7.75239033	    -45.00000000	    -35.46915958	     45.00000000	    -45.00000000	   1535.91109948	  -3702.54153320	    146.20976618	    125.00886742	   -712.84810317	     26.69786311	      9.25664680	    -18.67180164
      3.76000000	     20.05198042	     35.73207979	     57.04286425	    -54.36704871	    772.60749462	     10.32874427	     13.27052480	     37.59489653	     32.60167973	     45.00000000	    -43.08463101	  -1883.00194267	  -2099.82262059	     30.61702935	     59.58798320	   1448.11393267	     30.08591658	     17.10824686	     11.51513149	      7.62420793	    -45.00000000	    -35.25691289	     45.00000000	    -45.00000000	   1535.55801390	  -3702.35332465	    146.60994080	    125.46469113	   -712.86392253	     26.54295521	      9.25356684	    -18.78702359
      3.77000000	     20.13308755	     35.72473221	     56.94720230	    -54.96724795	    772.31107179	     10.32054891	     13.30270014	     37.23170153	     32.75123932	     45.00000000	    -43.35346412	  -1882.93170000	  -2099.72080810	     30.62782359	     59.39198987	   1448.10013599	     30.15254447	     16.99551010	     11.43676293	      7.73431126	    -45.00000000	    -35.42329640	     45.00000000	    -45.00000000	   1535.81439360	  -3702.49466984	    146.48155303	    125.49802151	   -712.79201663	     26.42691357	      9.31016181	    -18.74848004
      3.78000000	     20.16775606	     35.68601117	     56.74743169	    -55.58294699	    772.03254861	     10.30129235	     13.24494466	     37.25366571	     32.53341469	     45.00000000	    -42.90318812	  -1883.00179652	  -2099.92987898	     30.69235884	     59.19001337	   1447.97866374	     30.20749358	     17.00283786	     11.44131217	      7.65999779	    -45.00000000	    -35.37259731	     45.00000000	    -45.00000000	   1535.91358527	  -3702.45113675	    146.25605081	    125.48903869	   -712.88877737	     26.33993977	      9.36986146	    -18.76625053
      3.79000000	     20.35363298	     35.74847002	     56.49815899	    -56.21579010	    771.77403542	     10.27099424	     13.21564794	     37.35752030	     32.67141260	     45.00000000	    -42.87113516	  -1882.96428532	  -2099.70480924	     30.48338100	     59.42043507	   1448.20924897	     30.28419211	     17.06462492	     11.44025964	      7.69397947	    -45.00000000	    -35.34402925	     45.00000000	    -45.00000000	   1535.71033413	  -3702.44683823	    146.36073462	    125.80569246	   -712.81035879	     26.17074707	      9.29064840	    -18.74747712
      3.80000000	     20.30535422	     35.75372331	     56.48975835	    -56.86098957	    771.54922972	     10.23295881	     13.30754378	     37.26412749	     32.66157527	     45.00000000	    -43.05269265	  -1883.23748510	  -2099.90437574	     30.81923335	     59.16245657	   1448.06992995	     30.29140011	     17.03346702	     11.32533799	      7.63150261	    -45.00000000	    -35.40284000	     45.00000000	    -45.00000000	   1535.95223100	  -3702.39492701	    146.13194911	    125.97085738	   -712.87917671	     26.03873759	      9.45248454	    -18.78993586
      3.81000000	     20.50158237	     35.81026991	     56.26270313	    -57.52403099	    771.35690641	     10.18916433	     13.22063748	     37.39223247	     32.62188048	     45.00000000	    -42.67467627	  -1882.95427050	  -2099.56446419	     30.39039103	     59.24326650	   1448.26095183	     30.32824472	     17.13309312	     11.48613789	      7.70273284	    -45.00000000	    -35.29741005	     45.00000000	    -45.00000000	   1535.71659309	  -3702.41982720	    146.29442441	    126.15115041	   -712.76284052	     25.86214078	      9.34955194	    -18.78179705
      3.82000000	     20.57999952	     35.73462829	     56.17570888	    -58.19338783	    771.20171904	     10.14350293	     13.26837542	     37.23027395	     32.86064410	     45.00000000	    -43.14998725	  -1883.31005043	  -2099.89546041	     30.92666981	     59.10391086	   1448.09176259	     30.30909417	     17.04799877	     11.28086764	      7.63733802	    -45.00000000	    -35.48796498	     45.00000000	    -45.00000000	   1535.99271388	  -3702.48807409	    146.11492948	    126.40980178	   -712.83932642	     25.69466682	      9.49247542	    -18.80847373
      3.83000000	     20.72044932	     35.79318851	     55.92434741	    -58.87211011	    771.08371841	     10.09851821	     13.26875930	     37.46318975	     32.55769500	     45.00000000	    -42.34784469	  -1882.95433467	  -2099.56936351	     30.37822575	     59.20077661	   1448.17481553	     30.31419891	     17.15213613	     11.51319876	      7.67614123	    -45.00000000	    -35.34474643	     45.00000000	    -45.00000000	   1535.67767924	  -3702.39860296	    146.17893534	    126.57964277	   -712.75714425	     25.52241214	      9.45277233	    -18.81557419
      3.84000000	     20.81896302	     35.73170689	     55.74281046	    -59.56866383	    771.00335219	     10.05701712	     13.20685829	     37.21272519	     32.96150963	     45.00000000	    -43.06345499	  -1883.64406930	  -2099.92173704	     30.98073569	     59.11939538	   1448.33339175	     30.21190270	     17.09656600	     11.19749025	      7.64383122	    -45.00000000	    -35.42891953	     45.00000000	    -45.00000000	   1536.00163244	  -3702.37422580	    145.79405949	    126.95079293	   -712.73851593	     25.33739412	      9.45398503	    -18.82448171
      3.85000000	     20.79422884	     35.79612651	     55.91953148	    -60.27996313	    770.96286819	     10.02196458	     13.39325184	     37.28975437	     32.81847954	     45.00000000	    -43.12353342	  -1883.21887440	  -2099.50917729	     30.79262176	     58.79395298	   1448.19844685	     30.10314548	     17.11404148	     11.36807314	      7.67730032	    -45.00000000	    -35.45697700	     45.00000000	    -45.00000000	   1535.88861149	  -3702.37079409	    146.07280944	    127.02164023	   -712.70980127	     25.22495003	      9.54251918	    -18.85176452
